<svg xmlns="http://www.w3.org/2000/svg" viewBox="0 0 800 600" fill="none">
  <rect width="800" height="600" rx="16" fill="#18181b"/>
  <!-- Obsidian-style sidebar -->
  <rect x="0" y="0" width="200" height="600" rx="16" fill="#1e1e2e"/>
  <rect x="16" y="20" width="168" height="8" rx="4" fill="#ff00c8" opacity="0.7"/>
  <rect x="16" y="44" width="168" height="32" rx="6" fill="#27272a"/>
  <rect x="28" y="54" width="12" height="12" rx="2" fill="#00c8ff"/>
  <text x="48" y="65" fill="#a1a1aa" font-family="sans-serif" font-size="11">RSS Feeds</text>
  <rect x="16" y="84" width="168" height="32" rx="6" fill="#27272a"/>
  <rect x="28" y="94" width="12" height="12" rx="2" fill="#ffe500"/>
  <text x="48" y="105" fill="#a1a1aa" font-family="sans-serif" font-size="11">Plugin Manager</text>
  <rect x="16" y="124" width="168" height="32" rx="6" fill="#27272a"/>
  <rect x="28" y="134" width="12" height="12" rx="2" fill="#00ff44"/>
  <text x="48" y="145" fill="#a1a1aa" font-family="sans-serif" font-size="11">Media Library</text>
  <!-- File tree -->
  <rect x="16" y="180" width="168" height="6" rx="3" fill="#3f3f46"/>
  <rect x="32" y="196" width="152" height="6" rx="3" fill="#3f3f46"/>
  <rect x="32" y="212" width="140" height="6" rx="3" fill="#3f3f46"/>
  <rect x="32" y="228" width="148" height="6" rx="3" fill="#3f3f46"/>
  <!-- Main editor area -->
  <rect x="220" y="20" width="560" height="560" rx="8" fill="#1c1c1e"/>
  <!-- RSS Feed view -->
  <text x="240" y="52" fill="#ffffff" font-family="sans-serif" font-size="16" font-weight="bold">RSSFlowz</text>
  <rect x="240" y="70" width="520" height="100" rx="8" fill="#27272a"/>
  <rect x="256" y="86" width="200" height="8" rx="4" fill="#ffffff" opacity="0.8"/>
  <rect x="256" y="104" width="480" height="6" rx="3" fill="#52525b"/>
  <rect x="256" y="118" width="420" height="6" rx="3" fill="#52525b"/>
  <rect x="256" y="140" width="60" height="18" rx="9" fill="#ff00c8" opacity="0.2"/>
  <text x="266" y="153" fill="#ff00c8" font-family="sans-serif" font-size="9">Tech</text>
  <rect x="240" y="184" width="520" height="100" rx="8" fill="#27272a"/>
  <rect x="256" y="200" width="240" height="8" rx="4" fill="#ffffff" opacity="0.8"/>
  <rect x="256" y="218" width="460" height="6" rx="3" fill="#52525b"/>
  <rect x="256" y="232" width="400" height="6" rx="3" fill="#52525b"/>
  <rect x="256" y="254" width="80" height="18" rx="9" fill="#00c8ff" opacity="0.2"/>
  <text x="266" y="267" fill="#00c8ff" font-family="sans-serif" font-size="9">DevOps</text>
  <rect x="240" y="298" width="520" height="100" rx="8" fill="#27272a"/>
  <rect x="256" y="314" width="280" height="8" rx="4" fill="#ffffff" opacity="0.8"/>
  <rect x="256" y="332" width="490" height="6" rx="3" fill="#52525b"/>
  <rect x="256" y="346" width="440" height="6" rx="3" fill="#52525b"/>
  <rect x="256" y="368" width="90" height="18" rx="9" fill="#00ff44" opacity="0.2"/>
  <text x="266" y="381" fill="#00ff44" font-family="sans-serif" font-size="9">Productivity</text>
</svg>
