<svg xmlns="http://www.w3.org/2000/svg" viewBox="0 0 800 600" fill="none">
  <rect width="800" height="600" rx="16" fill="#18181b"/>
  <rect x="40" y="40" width="720" height="48" rx="8" fill="#27272a"/>
  <circle cx="72" cy="64" r="8" fill="#ef4444"/>
  <circle cx="100" cy="64" r="8" fill="#eab308"/>
  <circle cx="128" cy="64" r="8" fill="#22c55e"/>
  <rect x="180" y="52" width="300" height="24" rx="12" fill="#3f3f46"/>
  <rect x="40" y="108" width="720" height="452" rx="8" fill="#1c1c1e"/>
  <!-- YouTube player mockup -->
  <rect x="60" y="128" width="480" height="280" rx="8" fill="#0f0f0f"/>
  <polygon points="260,228 340,268 260,308" fill="#ff0033" opacity="0.9"/>
  <!-- Sidebar with bookmarks -->
  <rect x="560" y="128" width="180" height="280" rx="8" fill="#27272a"/>
  <rect x="572" y="144" width="156" height="8" rx="4" fill="#ff00c8"/>
  <rect x="572" y="164" width="120" height="6" rx="3" fill="#52525b"/>
  <rect x="572" y="182" width="140" height="6" rx="3" fill="#52525b"/>
  <rect x="572" y="210" width="156" height="8" rx="4" fill="#00c8ff"/>
  <rect x="572" y="230" width="130" height="6" rx="3" fill="#52525b"/>
  <rect x="572" y="248" width="145" height="6" rx="3" fill="#52525b"/>
  <rect x="572" y="276" width="156" height="8" rx="4" fill="#00ff44"/>
  <rect x="572" y="296" width="110" height="6" rx="3" fill="#52525b"/>
  <!-- Extension popup -->
  <rect x="560" y="428" width="180" height="120" rx="8" fill="#27272a" stroke="#ff00c8" stroke-width="2"/>
  <text x="580" y="452" fill="#ff00c8" font-family="sans-serif" font-size="12" font-weight="bold">ReplayGlowz</text>
  <rect x="572" y="464" width="156" height="28" rx="6" fill="#ff00c8" opacity="0.2"/>
  <text x="610" y="483" fill="#ff00c8" font-family="sans-serif" font-size="11">Save Bookmark</text>
  <rect x="572" y="500" width="156" height="28" rx="6" fill="#3f3f46"/>
  <text x="615" y="519" fill="#a1a1aa" font-family="sans-serif" font-size="11">Add Note</text>
</svg>
